HIERARCHY
ROOT Hips
{
	OFFSET -0.001795 -0.223333 0.028219
	CHANNELS 6 Xposition Yposition Zposition Zrotation Yrotation Xrotation 
	JOINT LeftUpLeg
	{
		OFFSET 0.069520 -0.091406 -0.006815
		CHANNELS 3 Zrotation Yrotation Xrotation
		JOINT LeftLeg
		{
			OFFSET 0.034277 -0.375199 -0.004496
			CHANNELS 3 Zrotation Yrotation Xrotation
			JOINT LeftFoot
			{
				OFFSET -0.013596 -0.397961 -0.043693
				CHANNELS 3 Zrotation Yrotation Xrotation
				JOINT LeftToe
				{
					OFFSET 0.026358 -0.055791 0.119288
					CHANNELS 3 Zrotation Yrotation Xrotation
					End Site
					{
						OFFSET 0.000000 0.000000 0.000000
					}
				}
			}
		}
	}
	JOINT RightUpLeg
	{
		OFFSET -0.067670 -0.090522 -0.004320
		CHANNELS 3 Zrotation Yrotation Xrotation
		JOINT RightLeg
		{
			OFFSET -0.038290 -0.382569 -0.008850
			CHANNELS 3 Zrotation Yrotation Xrotation
			JOINT RightFoot
			{
				OFFSET 0.015774 -0.398415 -0.042312
				CHANNELS 3 Zrotation Yrotation Xrotation
				JOINT RightToe
				{
					OFFSET -0.025372 -0.048144 0.123348
					CHANNELS 3 Zrotation Yrotation Xrotation
					End Site
					{
						OFFSET 0.000000 0.000000 0.000000
					}
				}
			}
		}
	}
	JOINT Spine
	{
		OFFSET -0.002533 0.108963 -0.026696
		CHANNELS 3 Zrotation Yrotation Xrotation
		JOINT Spine1
		{
			OFFSET 0.005487 0.135180 0.001092
			CHANNELS 3 Zrotation Yrotation Xrotation
			JOINT Spine2
			{
				OFFSET 0.001457 0.052922 0.025425
				CHANNELS 3 Zrotation Yrotation Xrotation
				JOINT Neck
				{
					OFFSET -0.002778 0.213870 -0.042857
					CHANNELS 3 Zrotation Yrotation Xrotation
					JOINT Head
					{
						OFFSET 0.005152 0.064970 0.051349
						CHANNELS 3 Zrotation Yrotation Xrotation
						End Site
						{
							OFFSET 0.000000 0.000000 0.000000
						}
					}
				}
				JOINT LeftShoulder
				{
					OFFSET 0.078845 0.121749 -0.034090
					CHANNELS 3 Zrotation Yrotation Xrotation
					JOINT LeftArm
					{
						OFFSET 0.090977 0.030469 -0.008868
						CHANNELS 3 Zrotation Yrotation Xrotation
						JOINT LeftForeArm
						{
							OFFSET 0.259612 -0.012772 -0.027456
							CHANNELS 3 Zrotation Yrotation Xrotation
							JOINT LeftHand
							{
								OFFSET 0.249234 0.008986 -0.001171
								CHANNELS 3 Zrotation Yrotation Xrotation
								End Site
								{
									OFFSET 0.000000 0.000000 0.000000
								}
							}
						}
					}
				}
				JOINT RightShoulder
				{
					OFFSET -0.081759 0.118833 -0.038615
					CHANNELS 3 Zrotation Yrotation Xrotation
					JOINT RightArm
					{
						OFFSET -0.096012 0.032551 -0.009143
						CHANNELS 3 Zrotation Yrotation Xrotation
						JOINT RightForeArm
						{
							OFFSET -0.253742 -0.013329 -0.021401
							CHANNELS 3 Zrotation Yrotation Xrotation
							JOINT RightHand
							{
								OFFSET -0.255298 0.007772 -0.005559
								CHANNELS 3 Zrotation Yrotation Xrotation
								End Site
								{
									OFFSET 0.000000 0.000000 0.000000
								}
							}
						}
					}
				}
			}
		}
	}
}
MOTION
Frames: 9
Frame Time: 0.050000
-0.033508 0.940610 -0.081857 -4.631714 17.265072 20.142716 11.793133 -1.534578 -23.783885 3.226454 -0.621458 4.980519 2.513277 10.863701 12.611154 0.000000 0.000000 0.000000 -4.201401 0.705540 -32.415713 -1.556513 0.493332 11.543062 1.078232 0.082574 9.865572 0.000000 0.000000 0.000000 2.643046 -2.434659 21.153950 -0.327755 -0.211227 2.845453 6.451414 1.518614 9.133359 -7.609324 5.784934 6.847208 0.000000 0.000000 0.000000 4.055578 -10.931989 3.947945 -52.209432 -29.802842 5.434423 -12.598954 -52.796377 7.439595 0.000000 0.000000 0.000000 -10.610483 18.154179 5.171438 54.370232 42.491537 16.963195 -18.390696 47.157707 -4.499218 0.000000 0.000000 0.000000 
-0.035669 0.941106 -0.081263 -4.807043 17.760772 20.086219 12.307967 -1.522763 -23.813632 3.118551 -0.597915 4.866372 2.424208 10.788769 12.680392 0.000000 0.000000 0.000000 -3.923987 0.737758 -32.283538 -1.239983 0.412838 11.311806 0.675408 -0.660896 9.780065 0.000000 0.000000 0.000000 2.365713 -2.361461 21.017512 -0.328563 -0.134476 1.892203 6.762620 1.424934 9.701002 -8.646181 6.735384 5.167853 0.000000 0.000000 0.000000 3.362487 -10.788716 3.860758 -52.183480 -28.530798 4.805116 -15.297532 -52.783043 8.737981 0.000000 0.000000 0.000000 -9.275617 18.130363 5.381016 56.241081 41.497651 17.121648 -16.807454 50.338588 -4.049213 0.000000 0.000000 0.000000 
-0.037444 0.941996 -0.079643 -5.509197 18.277968 19.981868 12.994552 -1.500656 -23.869922 3.387411 -0.598898 4.485608 1.938414 10.100430 12.752809 0.000000 0.000000 0.000000 -3.023628 0.931737 -31.952986 -1.352441 0.425641 10.442507 0.159248 -1.751061 10.265857 0.000000 0.000000 0.000000 2.022969 -2.206374 20.429901 -0.280586 -0.083237 0.960734 6.929397 1.471009 10.436842 -9.320152 7.357165 2.677187 0.000000 0.000000 0.000000 2.726856 -10.209753 3.624403 -52.413646 -26.935800 4.017413 -16.550093 -52.340904 9.171237 0.000000 0.000000 0.000000 -6.951030 17.755721 5.666052 58.235915 38.935017 16.283042 -12.259850 53.408975 -1.977732 0.000000 0.000000 0.000000 
-0.038857 0.942786 -0.077595 -5.663325 19.258592 19.694425 13.346888 -1.514810 -23.322656 3.761186 -0.543424 3.315503 1.344139 9.504854 13.407701 0.000000 0.000000 0.000000 -2.492841 0.993207 -31.073721 -1.549952 0.446135 9.644805 -0.262949 -2.497582 10.439854 0.000000 0.000000 0.000000 1.795683 -2.123233 20.013526 -0.258452 -0.029613 0.119591 6.501522 1.232325 10.763619 -9.814652 7.776097 0.670841 0.000000 0.000000 0.000000 2.471521 -10.437916 3.670523 -52.194164 -25.933904 3.484043 -15.510018 -51.670185 8.411934 0.000000 0.000000 0.000000 -4.952051 17.435823 5.935005 60.016680 36.205368 15.228180 -8.126516 56.513688 0.223981 0.000000 0.000000 0.000000 
-0.039617 0.943278 -0.075628 -5.806589 20.397182 19.428755 13.571771 -1.557314 -22.935521 3.995650 -0.502936 2.572182 0.603945 8.575834 13.642364 0.000000 0.000000 0.000000 -2.236907 0.971129 -30.308105 -1.648739 0.445365 9.075968 -0.595239 -2.992210 10.357065 0.000000 0.000000 0.000000 1.565547 -2.021008 19.421536 -0.616951 0.158564 -0.365251 6.326023 1.246339 10.711207 -10.156575 8.037439 -1.394267 0.000000 0.000000 0.000000 2.511801 -10.331109 3.624430 -52.127567 -25.834267 3.354391 -14.107145 -50.888030 7.429982 0.000000 0.000000 0.000000 -3.926268 16.899180 5.949524 61.159564 33.762510 14.224848 -3.617248 58.027797 2.804070 0.000000 0.000000 0.000000 
-0.039999 0.943857 -0.074094 -5.822943 21.005636 19.096049 13.410052 -1.567069 -22.141179 4.454090 -0.471007 1.667735 0.103659 8.037981 14.048447 0.000000 0.000000 0.000000 -2.088229 0.981007 -29.275931 -1.681112 0.435770 8.305171 -0.847409 -3.367084 10.079676 0.000000 0.000000 0.000000 0.832114 -1.759858 18.752716 -0.778305 0.283856 -1.085611 6.058012 1.816806 11.002033 -10.462329 8.295199 -3.979686 0.000000 0.000000 0.000000 1.777664 -10.210232 3.483307 -51.467412 -25.997282 3.262652 -12.917379 -50.126202 6.526847 0.000000 0.000000 0.000000 -3.092189 16.403052 5.950972 61.844179 31.928598 13.453334 -0.283944 59.323004 4.974750 0.000000 0.000000 0.000000 
-0.039920 0.944315 -0.073015 -5.734690 22.173275 18.762170 13.530838 -1.620108 -21.955074 4.541791 -0.467803 1.589456 -0.645073 6.844261 13.634666 0.000000 0.000000 0.000000 -1.919964 0.944037 -28.435061 -1.893175 0.458793 7.783753 -1.011195 -3.496772 9.774563 0.000000 0.000000 0.000000 0.562253 -1.636973 18.061226 -1.114741 0.437604 -1.309814 5.719966 2.303756 10.598751 -10.590360 8.383776 -5.072417 0.000000 0.000000 0.000000 0.469623 -10.540947 3.399469 -50.068424 -26.334690 3.315197 -11.494152 -49.657912 5.535220 0.000000 0.000000 0.000000 -2.736359 16.358681 6.040356 61.649287 30.595042 12.798187 2.885617 59.905106 6.973220 0.000000 0.000000 0.000000 
-0.039617 0.944625 -0.072088 -5.564747 22.847120 18.217421 13.399929 -1.625894 -21.289504 4.458799 -0.440408 1.388724 -1.061581 6.313586 13.710773 0.000000 0.000000 0.000000 -1.903119 0.924580 -27.335772 -1.838098 0.438042 7.668392 -1.109258 -3.541979 9.212134 0.000000 0.000000 0.000000 -0.307446 -1.398776 17.641673 -0.977726 0.425350 -1.841291 5.433028 2.998903 10.541235 -10.202731 8.188647 -7.363216 0.000000 0.000000 0.000000 0.083216 -10.371942 3.229274 -49.672828 -27.561669 3.701980 -9.905212 -49.407658 4.541246 0.000000 0.000000 0.000000 -1.820625 16.290062 6.254654 60.441166 30.341942 12.376031 4.929193 59.691896 8.231150 0.000000 0.000000 0.000000 
-0.039247 0.945031 -0.071324 -5.402743 23.856418 17.604028 13.328054 -1.642844 -20.582132 4.789264 -0.423341 0.890818 -1.703705 5.583547 14.002088 0.000000 0.000000 0.000000 -1.794273 0.911857 -25.978667 -2.152634 0.481623 7.037530 -1.400352 -4.029666 9.498390 0.000000 0.000000 0.000000 -0.807442 -1.208083 16.757202 -1.096512 0.499235 -2.121757 5.291917 2.792085 10.786105 -10.196157 8.240636 -7.465395 0.000000 0.000000 0.000000 -0.518046 -10.521851 3.167367 -49.044728 -29.003438 4.189539 -7.641897 -48.702110 3.394962 0.000000 0.000000 0.000000 -2.170060 15.989000 6.041662 60.471416 29.812670 12.170949 6.480621 60.208624 9.303700 0.000000 0.000000 0.000000 
